<?xml version="1.0" encoding="UTF-8" standalone="no"?>































<svg width="1100" height="1442" xmlns="http://www.w3.org/2000/svg" xmlns:xlink="http://www.w3.org/1999/xlink">
	<style>
		.field-text { font-family: 'SF Mono', 'Cascadia Code', 'Fira Code', Consolas, monospace; font-size: 12px; fill: #374151; }
		.field-label { font-family: 'SF Mono', 'Cascadia Code', 'Fira Code', Consolas, monospace; font-size: 11.5px; fill: #1f2937; font-weight: 600; text-anchor: end; }
		.struct-name { font-family: -apple-system, BlinkMacSystemFont, 'Segoe UI', sans-serif; font-size: 18px; font-weight: 700; fill: #111827; }
		.section-label { font-family: -apple-system, BlinkMacSystemFont, 'Segoe UI', sans-serif; font-size: 12px; font-weight: 600; fill: #6b7280; text-transform: uppercase; letter-spacing: 0.05em; }
		.offset-text { font-family: 'SF Mono', Consolas, monospace; font-size: 11px; fill: #6b7280; }
		.size-text { font-family: 'SF Mono', Consolas, monospace; font-size: 11px; fill: #6b7280; }
		.stat-value { font-family: 'SF Mono', Consolas, monospace; font-size: 12px; fill: #374151; }
		.stat-label { font-family: -apple-system, BlinkMacSystemFont, 'Segoe UI', sans-serif; font-size: 10px; fill: #9ca3af; text-transform: uppercase; }
		.code-text { font-family: 'SF Mono', 'Cascadia Code', 'Fira Code', Consolas, monospace; font-size: 12px; fill: #d1d5db; }
		.breakdown-text { font-family: 'SF Mono', Consolas, monospace; font-size: 11px; fill: #6b7280; }
		.col-header { font-family: -apple-system, BlinkMacSystemFont, 'Segoe UI', sans-serif; font-size: 11px; fill: #9ca3af; }
	</style>

	
	<rect width="100%" height="100%" fill="#fafafa" rx="8"/>
	<rect x="0" y="0" width="100%" height="100%" fill="none" stroke="#e5e7eb" stroke-width="1" rx="8"/>

	
	<text x="24" y="34" class="struct-name">BadLayout</text>

	
	<rect x="24" y="46" width="1052" height="36" rx="6" fill="#f3f4f6" stroke="#e5e7eb" stroke-width="0.5"/>
	<text x="40" y="62" class="stat-label">SIZE</text>
	<text x="40" y="76" class="stat-value">88B</text>
	<text x="130" y="62" class="stat-label">WASTED</text>
	<text x="130" y="76" class="stat-value">29B (33.0%)</text>
	<text x="310" y="62" class="stat-label">OPTIMIZED</text>
	<text x="310" y="76" class="stat-value">64B</text>
	<text x="440" y="62" class="stat-label">SAVED</text>
	<text x="440" y="76" class="stat-value" fill="#059669">24B (27.3%)</text>

	

	
	<text x="24" y="108" class="section-label">Original Layout</text>
	<text x="310" y="108" class="stat-value" font-size="10" fill="#9ca3af">88 bytes</text>

	
	<text x="66" y="126" class="col-header">Off</text>
	<text x="144" y="126" class="col-header">Field</text>
	<text x="462" y="126" class="col-header">Size</text>

	
	

	
	
	
	<text x="66" y="156" class="offset-text" text-anchor="end">0</text>
	<text x="144" y="156" class="field-label">Active</text>
	<rect x="159" y="138" width="260" height="30" rx="3" fill="#a855f7" stroke="#374151" stroke-width="0.5" stroke-opacity="0.5"  fill-opacity="0.85"/>
	<text x="431" y="156" class="size-text">1B</text>
	
	
	
	
	<text x="66" y="190" class="offset-text" text-anchor="end">1</text>
	<text x="144" y="190" class="field-label">padding</text>
	<rect x="159" y="172" width="260" height="30" rx="3" fill="#d1d5db" stroke="#d1d5db" stroke-width="1" stroke-opacity="0.5" stroke-dasharray="4,3" fill-opacity="0.45"/>
	<text x="431" y="190" class="size-text">7B</text>
	
	
	
	
	<text x="66" y="224" class="offset-text" text-anchor="end">8</text>
	<text x="144" y="224" class="field-label">ID</text>
	<rect x="159" y="206" width="260" height="30" rx="3" fill="#6366f1" stroke="#374151" stroke-width="0.5" stroke-opacity="0.5"  fill-opacity="0.85"/>
	<text x="431" y="224" class="size-text">8B</text>
	
	
	
	
	<text x="66" y="258" class="offset-text" text-anchor="end">16</text>
	<text x="144" y="258" class="field-label">Name</text>
	<rect x="159" y="240" width="260" height="30" rx="3" fill="#f97316" stroke="#374151" stroke-width="0.5" stroke-opacity="0.5"  fill-opacity="0.85"/>
	<text x="431" y="258" class="size-text">16B</text>
	
	
	
	
	<text x="66" y="292" class="offset-text" text-anchor="end">32</text>
	<text x="144" y="292" class="field-label">IsConfirmed</text>
	<rect x="159" y="274" width="260" height="30" rx="3" fill="#a855f7" stroke="#374151" stroke-width="0.5" stroke-opacity="0.5"  fill-opacity="0.85"/>
	<text x="431" y="292" class="size-text">1B</text>
	
	
	
	
	<text x="66" y="326" class="offset-text" text-anchor="end">33</text>
	<text x="144" y="326" class="field-label">padding</text>
	<rect x="159" y="308" width="260" height="30" rx="3" fill="#d1d5db" stroke="#d1d5db" stroke-width="1" stroke-opacity="0.5" stroke-dasharray="4,3" fill-opacity="0.45"/>
	<text x="431" y="326" class="size-text">7B</text>
	
	
	
	
	<text x="66" y="360" class="offset-text" text-anchor="end">40</text>
	<text x="144" y="360" class="field-label">Score</text>
	<rect x="159" y="342" width="260" height="30" rx="3" fill="#06b6d4" stroke="#374151" stroke-width="0.5" stroke-opacity="0.5"  fill-opacity="0.85"/>
	<text x="431" y="360" class="size-text">8B</text>
	
	
	
	
	<text x="66" y="394" class="offset-text" text-anchor="end">48</text>
	<text x="144" y="394" class="field-label">Tiny</text>
	<rect x="159" y="376" width="260" height="30" rx="3" fill="#64748b" stroke="#374151" stroke-width="0.5" stroke-opacity="0.5"  fill-opacity="0.85"/>
	<text x="431" y="394" class="size-text">1B</text>
	
	
	
	
	<text x="66" y="428" class="offset-text" text-anchor="end">49</text>
	<text x="144" y="428" class="field-label">padding</text>
	<rect x="159" y="410" width="260" height="30" rx="3" fill="#d1d5db" stroke="#d1d5db" stroke-width="1" stroke-opacity="0.5" stroke-dasharray="4,3" fill-opacity="0.45"/>
	<text x="431" y="428" class="size-text">7B</text>
	
	
	
	
	<text x="66" y="462" class="offset-text" text-anchor="end">56</text>
	<text x="144" y="462" class="field-label">Address</text>
	<rect x="159" y="444" width="260" height="30" rx="3" fill="#f97316" stroke="#374151" stroke-width="0.5" stroke-opacity="0.5"  fill-opacity="0.85"/>
	<text x="431" y="462" class="size-text">16B</text>
	
	
	
	
	<text x="66" y="496" class="offset-text" text-anchor="end">72</text>
	<text x="144" y="496" class="field-label">IsEnabled</text>
	<rect x="159" y="478" width="260" height="30" rx="3" fill="#a855f7" stroke="#374151" stroke-width="0.5" stroke-opacity="0.5"  fill-opacity="0.85"/>
	<text x="431" y="496" class="size-text">1B</text>
	
	
	
	
	<text x="66" y="530" class="offset-text" text-anchor="end">73</text>
	<text x="144" y="530" class="field-label">padding</text>
	<rect x="159" y="512" width="260" height="30" rx="3" fill="#d1d5db" stroke="#d1d5db" stroke-width="1" stroke-opacity="0.5" stroke-dasharray="4,3" fill-opacity="0.45"/>
	<text x="431" y="530" class="size-text">3B</text>
	
	
	
	
	<text x="66" y="564" class="offset-text" text-anchor="end">76</text>
	<text x="144" y="564" class="field-label">Counter</text>
	<rect x="159" y="546" width="260" height="30" rx="3" fill="#10b981" stroke="#374151" stroke-width="0.5" stroke-opacity="0.5"  fill-opacity="0.85"/>
	<text x="431" y="564" class="size-text">4B</text>
	
	
	
	
	<text x="66" y="598" class="offset-text" text-anchor="end">80</text>
	<text x="144" y="598" class="field-label">TinyValue</text>
	<rect x="159" y="580" width="260" height="30" rx="3" fill="#64748b" stroke="#374151" stroke-width="0.5" stroke-opacity="0.5"  fill-opacity="0.85"/>
	<text x="431" y="598" class="size-text">1B</text>
	
	
	
	
	<text x="66" y="632" class="offset-text" text-anchor="end">81</text>
	<text x="144" y="632" class="field-label">padding</text>
	<rect x="159" y="614" width="260" height="30" rx="3" fill="#d1d5db" stroke="#d1d5db" stroke-width="1" stroke-opacity="0.5" stroke-dasharray="4,3" fill-opacity="0.45"/>
	<text x="431" y="632" class="size-text">1B</text>
	
	
	
	
	<text x="66" y="666" class="offset-text" text-anchor="end">82</text>
	<text x="144" y="666" class="field-label">Status</text>
	<rect x="159" y="648" width="260" height="30" rx="3" fill="#f59e0b" stroke="#374151" stroke-width="0.5" stroke-opacity="0.5"  fill-opacity="0.85"/>
	<text x="431" y="666" class="size-text">2B</text>
	
	
	
	
	<text x="66" y="700" class="offset-text" text-anchor="end">84</text>
	<text x="144" y="700" class="field-label">tail padding</text>
	<rect x="159" y="682" width="260" height="30" rx="3" fill="#e5e7eb" stroke="#d1d5db" stroke-width="1" stroke-opacity="0.5" stroke-dasharray="4,3" fill-opacity="0.45"/>
	<text x="431" y="700" class="size-text">4B</text>
	
	
	<text x="66" y="717" class="offset-text" text-anchor="end">88</text>

	
	<line x1="548" y1="100" x2="548" y2="724" stroke="#e5e7eb" stroke-width="1"/>

	
	<text x="560" y="108" class="section-label">Optimized Layout</text>
	<text x="846" y="108" class="stat-value" font-size="10" fill="#059669">64 bytes (7.8% waste)</text>

	
	<text x="602" y="126" class="col-header">Off</text>
	<text x="680" y="126" class="col-header">Field</text>
	<text x="998" y="126" class="col-header">Size</text>

	
	

	
	
	
	<text x="602" y="156" class="offset-text" text-anchor="end">0</text>
	<text x="680" y="156" class="field-label">Name</text>
	<rect x="695" y="138" width="260" height="30" rx="3" fill="#f97316" stroke="#374151" stroke-width="0.5" stroke-opacity="0.5"  fill-opacity="0.85"/>
	<text x="967" y="156" class="size-text">16B</text>
	
	
	
	
	<text x="602" y="190" class="offset-text" text-anchor="end">16</text>
	<text x="680" y="190" class="field-label">Address</text>
	<rect x="695" y="172" width="260" height="30" rx="3" fill="#f97316" stroke="#374151" stroke-width="0.5" stroke-opacity="0.5"  fill-opacity="0.85"/>
	<text x="967" y="190" class="size-text">16B</text>
	
	
	
	
	<text x="602" y="224" class="offset-text" text-anchor="end">32</text>
	<text x="680" y="224" class="field-label">ID</text>
	<rect x="695" y="206" width="260" height="30" rx="3" fill="#6366f1" stroke="#374151" stroke-width="0.5" stroke-opacity="0.5"  fill-opacity="0.85"/>
	<text x="967" y="224" class="size-text">8B</text>
	
	
	
	
	<text x="602" y="258" class="offset-text" text-anchor="end">40</text>
	<text x="680" y="258" class="field-label">Score</text>
	<rect x="695" y="240" width="260" height="30" rx="3" fill="#06b6d4" stroke="#374151" stroke-width="0.5" stroke-opacity="0.5"  fill-opacity="0.85"/>
	<text x="967" y="258" class="size-text">8B</text>
	
	
	
	
	<text x="602" y="292" class="offset-text" text-anchor="end">48</text>
	<text x="680" y="292" class="field-label">Counter</text>
	<rect x="695" y="274" width="260" height="30" rx="3" fill="#10b981" stroke="#374151" stroke-width="0.5" stroke-opacity="0.5"  fill-opacity="0.85"/>
	<text x="967" y="292" class="size-text">4B</text>
	
	
	
	
	<text x="602" y="326" class="offset-text" text-anchor="end">52</text>
	<text x="680" y="326" class="field-label">Status</text>
	<rect x="695" y="308" width="260" height="30" rx="3" fill="#f59e0b" stroke="#374151" stroke-width="0.5" stroke-opacity="0.5"  fill-opacity="0.85"/>
	<text x="967" y="326" class="size-text">2B</text>
	
	
	
	
	<text x="602" y="360" class="offset-text" text-anchor="end">54</text>
	<text x="680" y="360" class="field-label">Active</text>
	<rect x="695" y="342" width="260" height="30" rx="3" fill="#a855f7" stroke="#374151" stroke-width="0.5" stroke-opacity="0.5"  fill-opacity="0.85"/>
	<text x="967" y="360" class="size-text">1B</text>
	
	
	
	
	<text x="602" y="394" class="offset-text" text-anchor="end">55</text>
	<text x="680" y="394" class="field-label">IsConfirmed</text>
	<rect x="695" y="376" width="260" height="30" rx="3" fill="#a855f7" stroke="#374151" stroke-width="0.5" stroke-opacity="0.5"  fill-opacity="0.85"/>
	<text x="967" y="394" class="size-text">1B</text>
	
	
	
	
	<text x="602" y="428" class="offset-text" text-anchor="end">56</text>
	<text x="680" y="428" class="field-label">Tiny</text>
	<rect x="695" y="410" width="260" height="30" rx="3" fill="#64748b" stroke="#374151" stroke-width="0.5" stroke-opacity="0.5"  fill-opacity="0.85"/>
	<text x="967" y="428" class="size-text">1B</text>
	
	
	
	
	<text x="602" y="462" class="offset-text" text-anchor="end">57</text>
	<text x="680" y="462" class="field-label">IsEnabled</text>
	<rect x="695" y="444" width="260" height="30" rx="3" fill="#a855f7" stroke="#374151" stroke-width="0.5" stroke-opacity="0.5"  fill-opacity="0.85"/>
	<text x="967" y="462" class="size-text">1B</text>
	
	
	
	
	<text x="602" y="496" class="offset-text" text-anchor="end">58</text>
	<text x="680" y="496" class="field-label">TinyValue</text>
	<rect x="695" y="478" width="260" height="30" rx="3" fill="#64748b" stroke="#374151" stroke-width="0.5" stroke-opacity="0.5"  fill-opacity="0.85"/>
	<text x="967" y="496" class="size-text">1B</text>
	
	
	
	
	<text x="602" y="530" class="offset-text" text-anchor="end">59</text>
	<text x="680" y="530" class="field-label">tail padding</text>
	<rect x="695" y="512" width="260" height="30" rx="3" fill="#e5e7eb" stroke="#d1d5db" stroke-width="1" stroke-opacity="0.5" stroke-dasharray="4,3" fill-opacity="0.45"/>
	<text x="967" y="530" class="size-text">5B</text>
	
	
	<text x="602" y="547" class="offset-text" text-anchor="end">64</text>

	

	
	
	

	
	
	<line x1="24" y1="734" x2="1076" y2="734" stroke="#e5e7eb" stroke-width="1"/>

	
	
	<text x="24" y="756" class="section-label">Field Details</text>
	
	
	
	<text x="32" y="774" class="breakdown-text" fill="#6b7280">Active: Offset=0, Size=1, Type=bool, Align=1</text>
	
	
	<text x="32" y="792" class="breakdown-text" fill="#ef4444">padding: Offset=1, Size=7</text>
	
	
	<text x="32" y="810" class="breakdown-text" fill="#6b7280">ID: Offset=8, Size=8, Type=uint64, Align=8</text>
	
	
	<text x="32" y="828" class="breakdown-text" fill="#6b7280">Name: Offset=16, Size=16, Type=string, Align=8</text>
	
	
	<text x="32" y="846" class="breakdown-text" fill="#6b7280">IsConfirmed: Offset=32, Size=1, Type=bool, Align=1</text>
	
	
	<text x="32" y="864" class="breakdown-text" fill="#ef4444">padding: Offset=33, Size=7</text>
	
	
	<text x="32" y="882" class="breakdown-text" fill="#6b7280">Score: Offset=40, Size=8, Type=float64, Align=8</text>
	
	
	<text x="32" y="900" class="breakdown-text" fill="#6b7280">Tiny: Offset=48, Size=1, Type=byte, Align=1</text>
	
	
	<text x="32" y="918" class="breakdown-text" fill="#ef4444">padding: Offset=49, Size=7</text>
	
	
	<text x="32" y="936" class="breakdown-text" fill="#6b7280">Address: Offset=56, Size=16, Type=string, Align=8</text>
	
	
	<text x="32" y="954" class="breakdown-text" fill="#6b7280">IsEnabled: Offset=72, Size=1, Type=bool, Align=1</text>
	
	
	<text x="32" y="972" class="breakdown-text" fill="#ef4444">padding: Offset=73, Size=3</text>
	
	
	<text x="32" y="990" class="breakdown-text" fill="#6b7280">Counter: Offset=76, Size=4, Type=uint32, Align=4</text>
	
	
	<text x="32" y="1008" class="breakdown-text" fill="#6b7280">TinyValue: Offset=80, Size=1, Type=byte, Align=1</text>
	
	
	<text x="32" y="1026" class="breakdown-text" fill="#ef4444">padding: Offset=81, Size=1</text>
	
	
	<text x="32" y="1044" class="breakdown-text" fill="#6b7280">Status: Offset=82, Size=2, Type=uint16, Align=2</text>
	
	
	<text x="32" y="1062" class="breakdown-text" fill="#ef4444">tail padding: Offset=84, Size=4</text>
	

	
	
	
	<text x="24" y="1094" class="section-label">Suggested Code</text>
	
	
	<rect x="24" y="1104" width="1052" height="238" rx="6" fill="#1f2937"/>
	
	<text x="40" y="1126" class="code-text"><tspan fill="#c084fc">type</tspan> <tspan fill="#67e8f9">BadLayoutOptimized</tspan> <tspan fill="#c084fc">struct</tspan> <tspan fill="#d1d5db">{</tspan></text>
	
	
	
	<text x="56" y="1144" class="code-text">Name string</text>
	
	
	
	<text x="56" y="1162" class="code-text">Address string</text>
	
	
	
	<text x="56" y="1180" class="code-text">ID uint64</text>
	
	
	
	<text x="56" y="1198" class="code-text">Score float64</text>
	
	
	
	<text x="56" y="1216" class="code-text">Counter uint32</text>
	
	
	
	<text x="56" y="1234" class="code-text">Status uint16</text>
	
	
	
	<text x="56" y="1252" class="code-text">Active bool</text>
	
	
	
	<text x="56" y="1270" class="code-text">IsConfirmed bool</text>
	
	
	
	<text x="56" y="1288" class="code-text">Tiny byte</text>
	
	
	
	<text x="56" y="1306" class="code-text">IsEnabled bool</text>
	
	
	
	<text x="56" y="1324" class="code-text">TinyValue byte</text>
	
	
	
	<text x="40" y="1342" class="code-text">}</text>
</svg>
